<svg width="27" height="34" viewBox="0 0 27 34" fill="none" xmlns="http://www.w3.org/2000/svg">
<path d="M0 33.3333V6.66667H6.66667C6.66667 4.83333 7.31944 3.26389 8.625 1.95833C9.93056 0.652778 11.5 0 13.3333 0C15.1667 0 16.7361 0.652778 18.0417 1.95833C19.3472 3.26389 20 4.83333 20 6.66667H26.6667V33.3333H0ZM10 6.66667H16.6667C16.6667 5.75 16.3406 4.96556 15.6883 4.31333C15.035 3.66 14.25 3.33333 13.3333 3.33333C12.4167 3.33333 11.6322 3.66 10.98 4.31333C10.3267 4.96556 10 5.75 10 6.66667ZM3.33333 30H23.3333V10H20V15H16.6667V10H10V15H6.66667V10H3.33333V30Z" fill="#1F1F1F"/>
</svg>
